<?xml version="1.0" encoding="UTF-8" standalone="no"?>
<!DOCTYPE svg PUBLIC "-//W3C//DTD SVG 1.1//EN"
 "http://www.w3.org/Graphics/SVG/1.1/DTD/svg11.dtd">
<!-- Generated by graphviz version 2.26.0 (20091210.2329)
 -->
<!-- Title: models_diagram Pages: 1 -->
<svg width="296pt" height="130pt"
 viewBox="0.00 0.00 296.00 130.00" xmlns="http://www.w3.org/2000/svg" xmlns:xlink="http://www.w3.org/1999/xlink">
<g id="graph1" class="graph" transform="scale(1 1) rotate(0) translate(4 126)">
<title>models_diagram</title>
<polygon fill="white" stroke="white" points="-4,5 -4,-126 293,-126 293,5 -4,5"/>
<!-- Nabaztag -->
<g id="node1" class="node"><title>Nabaztag</title>
<polyline fill="none" stroke="black" points="11.5,-0.5 124.5,-0.5 "/>
<path fill="none" stroke="black" d="M124.5,-0.5C130.5,-0.5 136.5,-6.5 136.5,-12.5"/>
<polyline fill="none" stroke="black" points="136.5,-12.5 136.5,-109.5 "/>
<path fill="none" stroke="black" d="M136.5,-109.5C136.5,-115.5 130.5,-121.5 124.5,-121.5"/>
<polyline fill="none" stroke="black" points="124.5,-121.5 11.5,-121.5 "/>
<path fill="none" stroke="black" d="M11.5,-121.5C5.5,-121.5 -0.5,-115.5 -0.5,-109.5"/>
<polyline fill="none" stroke="black" points="-0.5,-109.5 -0.5,-12.5 "/>
<path fill="none" stroke="black" d="M-0.5,-12.5C-0.5,-6.5 5.5,-0.5 11.5,-0.5"/>
<text text-anchor="middle" x="68" y="-104.9" font-family="Times,serif" font-size="14.00">Nabaztag</text>
<polyline fill="none" stroke="black" points="-0.5,-98.5 136.5,-98.5 "/>
<text text-anchor="start" x="7.5" y="-81.9" font-family="Times,serif" font-size="14.00">name :string</text>
<text text-anchor="start" x="7.5" y="-66.9" font-family="Times,serif" font-size="14.00">serial_number :string</text>
<text text-anchor="start" x="7.5" y="-51.9" font-family="Times,serif" font-size="14.00">token :string</text>
<text text-anchor="start" x="7.5" y="-36.9" font-family="Times,serif" font-size="14.00">created_at :datetime</text>
<text text-anchor="start" x="7.5" y="-21.9" font-family="Times,serif" font-size="14.00">updated_at :datetime</text>
<text text-anchor="start" x="7.5" y="-6.9" font-family="Times,serif" font-size="14.00">description :string</text>
</g>
<!-- Radio -->
<g id="node2" class="node"><title>Radio</title>
<polyline fill="none" stroke="black" points="165.5,-8 276.5,-8 "/>
<path fill="none" stroke="black" d="M276.5,-8C282.5,-8 288.5,-14 288.5,-20"/>
<polyline fill="none" stroke="black" points="288.5,-20 288.5,-102 "/>
<path fill="none" stroke="black" d="M288.5,-102C288.5,-108 282.5,-114 276.5,-114"/>
<polyline fill="none" stroke="black" points="276.5,-114 165.5,-114 "/>
<path fill="none" stroke="black" d="M165.5,-114C159.5,-114 153.5,-108 153.5,-102"/>
<polyline fill="none" stroke="black" points="153.5,-102 153.5,-20 "/>
<path fill="none" stroke="black" d="M153.5,-20C153.5,-14 159.5,-8 165.5,-8"/>
<text text-anchor="middle" x="221" y="-97.4" font-family="Times,serif" font-size="14.00">Radio</text>
<polyline fill="none" stroke="black" points="153.5,-91 288.5,-91 "/>
<text text-anchor="start" x="161.5" y="-74.4" font-family="Times,serif" font-size="14.00">name :string</text>
<text text-anchor="start" x="161.5" y="-59.4" font-family="Times,serif" font-size="14.00">url :string</text>
<text text-anchor="start" x="161.5" y="-44.4" font-family="Times,serif" font-size="14.00">created_at :datetime</text>
<text text-anchor="start" x="161.5" y="-29.4" font-family="Times,serif" font-size="14.00">updated_at :datetime</text>
<text text-anchor="start" x="161.5" y="-14.4" font-family="Times,serif" font-size="14.00">description :string</text>
</g>
</g>
</svg>
